<svg xmlns="http://www.w3.org/2000/svg" viewBox="0 0 173.84 55.13"><defs><style>.cls-1,.cls-2{fill:#f59a1b;}.cls-1{opacity:0.6;}</style></defs><title>BodenOrange</title><g id="Ebene_2" data-name="Ebene 2"><g id="Ebene_1-2" data-name="Ebene 1"><g id="Gruppe_5" data-name="Gruppe 5"><path id="Pfad_28" data-name="Pfad 28" class="cls-1" d="M162.7,17.52v-.69a10.54,10.54,0,0,0-11.11-9.94h0a10.52,10.52,0,0,0-9.71,8.28,2.91,2.91,0,0,1-2.82,2.34h-.2A2.84,2.84,0,0,1,136,15.09a17.51,17.51,0,0,0-34.68,0,2.84,2.84,0,0,1-2.83,2.42h-5a2.92,2.92,0,0,1-2.68-1.86,4.87,4.87,0,0,0-9,0,2.92,2.92,0,0,1-2.68,1.86H67.27a2.87,2.87,0,0,1-2.81-2.36,13.26,13.26,0,0,0-26.11,0,2.87,2.87,0,0,1-2.81,2.36H26.21a2.86,2.86,0,0,0-2.86,2.86h0V42.92a2.86,2.86,0,0,0,2.86,2.86H171a2.86,2.86,0,0,0,2.86-2.86h0V20.38A2.86,2.86,0,0,0,171,17.52H162.7Z"/><path id="Pfad_29" data-name="Pfad 29" class="cls-2" d="M139.36,26.87v-.69a10.55,10.55,0,0,0-11.11-9.94h0a10.53,10.53,0,0,0-9.71,8.28,2.91,2.91,0,0,1-2.81,2.34h-.21a2.84,2.84,0,0,1-2.83-2.41,17.51,17.51,0,0,0-34.68,0,2.84,2.84,0,0,1-2.83,2.41h-5A3,3,0,0,1,67.47,25a4.87,4.87,0,0,0-9,0,2.92,2.92,0,0,1-2.68,1.85H43.92a2.86,2.86,0,0,1-2.81-2.36A13.26,13.26,0,0,0,15,24.5a2.87,2.87,0,0,1-2.82,2.36H2.86A2.86,2.86,0,0,0,0,29.72H0V52.27a2.86,2.86,0,0,0,2.86,2.86H147.63a2.86,2.86,0,0,0,2.86-2.86h0V29.74a2.86,2.86,0,0,0-2.86-2.87h-8.27Z"/></g></g></g></svg>