<svg xmlns="http://www.w3.org/2000/svg" viewBox="0 0 120.67 100.17"><defs><style>.cls-1,.cls-2{fill:#63b770;}.cls-1{opacity:0.6;}</style></defs><title>ConstructionGrün</title><g id="Ebene_2" data-name="Ebene 2"><g id="Ebene_1-2" data-name="Ebene 1"><polygon class="cls-1" points="38.87 62.58 99.55 62.58 89.87 37.9 48.55 37.9 38.87 62.58"/><path class="cls-1" d="M85.72,27.33,79.18,10.64c-5.48-14-14.45-14-19.94,0L52.69,27.33Z"/><path class="cls-1" d="M116.05,91h-5.38l-7-17.8h-69l-7,17.8H22.37a4.61,4.61,0,1,0,0,9.22h93.68a4.61,4.61,0,1,0,0-9.22Z"/><polygon class="cls-2" points="21.12 62.42 81.8 62.42 72.12 37.75 30.79 37.75 21.12 62.42"/><path class="cls-2" d="M68,27.18,61.43,10.49c-5.49-14-14.46-14-19.94,0L34.94,27.18Z"/><path class="cls-2" d="M98.3,90.79H92.92L85.94,73H17L10,90.79H4.62a4.62,4.62,0,1,0,0,9.23H98.3a4.62,4.62,0,1,0,0-9.23Z"/></g></g></svg>