<svg xmlns="http://www.w3.org/2000/svg" viewBox="0 0 122 100.1"><defs><style>.cls-1,.cls-2{fill:#df4848;}.cls-1{opacity:0.61;}</style></defs><title>ConstructionRot</title><g id="Ebene_2" data-name="Ebene 2"><g id="Ebene_1-2" data-name="Ebene 1"><polygon class="cls-1" points="40.2 62.5 100.88 62.5 91.2 37.82 49.88 37.82 40.2 62.5"/><path class="cls-1" d="M87.06,27.25,80.51,10.56c-5.48-14-14.45-14-19.93,0L54,27.25Z"/><path class="cls-1" d="M117.38,90.87H112l-7-17.8h-69l-7,17.8H23.7a4.62,4.62,0,0,0,0,9.23h93.69a4.62,4.62,0,0,0,0-9.23Z"/><polygon class="cls-2" points="21.12 62.42 81.8 62.42 72.12 37.75 30.79 37.75 21.12 62.42"/><path class="cls-2" d="M68,27.18,61.43,10.49c-5.49-14-14.46-14-19.94,0L34.94,27.18Z"/><path class="cls-2" d="M98.3,90.79H92.92L85.94,73H17L10,90.79H4.62a4.62,4.62,0,1,0,0,9.23H98.3a4.62,4.62,0,1,0,0-9.23Z"/></g></g></svg>