<svg xmlns="http://www.w3.org/2000/svg" viewBox="0 0 118.22 100.1"><defs><style>.cls-1,.cls-2{fill:#f59a1b;}.cls-2{opacity:0.6;}</style></defs><title>ConstructionOrange</title><g id="Ebene_2" data-name="Ebene 2"><g id="Ebene_1-2" data-name="Ebene 1"><polygon class="cls-1" points="21.12 62.42 81.8 62.42 72.12 37.75 30.79 37.75 21.12 62.42"/><path class="cls-1" d="M68,27.18,61.43,10.49c-5.49-14-14.46-14-19.94,0L34.94,27.18Z"/><path class="cls-1" d="M98.3,90.79H92.92L85.94,73H17L10,90.79H4.62a4.62,4.62,0,1,0,0,9.23H98.3a4.62,4.62,0,1,0,0-9.23Z"/><polygon class="cls-2" points="36.42 62.5 97.1 62.5 87.42 37.82 46.1 37.82 36.42 62.5"/><path class="cls-2" d="M83.28,27.25,76.73,10.56c-5.48-14-14.45-14-19.94,0L50.24,27.25Z"/><path class="cls-2" d="M113.6,90.87h-5.38l-7-17.8h-69l-7,17.8H19.92a4.62,4.62,0,1,0,0,9.23H113.6a4.62,4.62,0,1,0,0-9.23Z"/></g></g></svg>