<svg xmlns="http://www.w3.org/2000/svg" viewBox="0 0 159.55 127.47"><defs><style>.cls-1,.cls-2{fill:none;stroke:#fff;stroke-linecap:round;stroke-width:4px;}.cls-1{stroke-miterlimit:10;}.cls-2{stroke-linejoin:round;}</style></defs><title>LogoUrbanBikingWeiß</title><g id="Ebene_2" data-name="Ebene 2"><g id="Ebene_1-2" data-name="Ebene 1"><path class="cls-1" d="M111.8,60.34V10.5A8.53,8.53,0,0,0,103.29,2H87.74a8.53,8.53,0,0,0-8.51,8.5v18"/><path class="cls-1" d="M89.43,80.44V36.08a7.56,7.56,0,0,0-7.54-7.53H64.4a7.56,7.56,0,0,0-7.54,7.53V53.9"/><path class="cls-1" d="M132.59,125.47V66.52a6.2,6.2,0,0,0-6.18-6.18H106.2A6.2,6.2,0,0,0,100,66.52v20"/><line class="cls-1" x1="106.18" y1="125.47" x2="157.55" y2="125.47"/></g><g id="Ebene_2-2" data-name="Ebene 2"><path class="cls-2" d="M25.38,72.63h7.78A4.89,4.89,0,0,1,37.82,76l7.94,24.85a4.89,4.89,0,0,0,8,2.11L69,88.92a4.89,4.89,0,0,0-3.32-8.48H41.74a4.87,4.87,0,0,0-4,2l-12.93,18a4.88,4.88,0,0,0,4,7.74H48.09"/><path class="cls-2" d="M61.48,64.91h8.44a4.9,4.9,0,0,1,4.7,3.53L86.21,108.2"/><circle class="cls-2" cx="19.27" cy="108.2" r="17.27"/><circle class="cls-2" cx="86.21" cy="108.2" r="17.27"/></g></g></svg>