<svg xmlns="http://www.w3.org/2000/svg" viewBox="0 0 134.03 69.69"><defs><style>.cls-1,.cls-2{fill:#f59a1b;}.cls-1{opacity:0.6;}</style></defs><title>SpeedOrange</title><g id="Ebene_2" data-name="Ebene 2"><g id="Ebene_1-2" data-name="Ebene 1"><path class="cls-1" d="M77.31,0C46.79,0,21.89,29.35,20.59,66.16a2.94,2.94,0,0,0,2.95,3H77.31s-6.4-1.24-6.4-15.62a60.26,60.26,0,0,1,5.33-23.83,1.17,1.17,0,0,1,2.14,0,60.26,60.26,0,0,1,5.33,23.83c0,14.38-6.4,15.62-6.4,15.62h53.77a2.94,2.94,0,0,0,2.95-3C132.72,29.35,107.83,0,77.31,0Z"/><path class="cls-2" d="M56.72.48C26.2.48,1.31,29.84,0,66.65a3,3,0,0,0,3,3H56.72s-6.4-1.25-6.4-15.63a60.31,60.31,0,0,1,5.33-23.83,1.17,1.17,0,0,1,2.14,0,60.13,60.13,0,0,1,5.33,23.83c0,14.38-6.4,15.63-6.4,15.63h53.77a2.94,2.94,0,0,0,3-3C112.14,29.84,87.24.48,56.72.48Z"/></g></g></svg>