<svg xmlns="http://www.w3.org/2000/svg" viewBox="0 0 133.91 69.64"><defs><style>.cls-1,.cls-2{fill:#63b770;}.cls-1{opacity:0.59;}</style></defs><title>SpeedGrün</title><g id="Ebene_2" data-name="Ebene 2"><g id="Ebene_1-2" data-name="Ebene 1"><path class="cls-1" d="M77.18.44C46.66.44,21.77,29.79,20.46,66.6a2.94,2.94,0,0,0,2.95,3H131a2.94,2.94,0,0,0,3-3C132.6,29.79,107.7.44,77.18.44ZM79.62,69s-5.41,3.64-15.57-6.52A60.28,60.28,0,0,1,51,41.86a1.18,1.18,0,0,1,1.52-1.51A60.29,60.29,0,0,1,73.1,53.43C83.27,63.6,79.62,69,79.62,69Z"/><path class="cls-2" d="M56.72,0C26.2,0,1.31,29.35,0,66.16a2.94,2.94,0,0,0,3,3H110.49a2.94,2.94,0,0,0,3-3C112.14,29.35,87.24,0,56.72,0Zm2.44,68.57s-5.41,3.65-15.57-6.52A60.28,60.28,0,0,1,30.5,41.42,1.18,1.18,0,0,1,32,39.91,60.45,60.45,0,0,1,52.64,53C62.81,63.16,59.16,68.57,59.16,68.57Z"/></g></g></svg>