<svg xmlns="http://www.w3.org/2000/svg" viewBox="0 0 94.64 90"><defs><style>.cls-1,.cls-2{fill:#f59a1b;}.cls-1{opacity:0.6;}</style></defs><title>UserVoteOrange</title><g id="Ebene_2" data-name="Ebene 2"><g id="Ebene_1-2" data-name="Ebene 1"><path class="cls-1" d="M53.2,90c-12.64-.45-37.28-5.29-39.94-15.35C10.39,63.82,10.12,56,14.2,37.27a82,82,0,0,0,1-11.72,1.3,1.3,0,0,1,1.31-1.27H56.21a1.25,1.25,0,0,1,1,.5c1.81,2.55,6.56,4.07,9,6.82,4.61,5.16,6,9.1,8.6,12.56,4.49,6,10.19,7,14.66,8.92,3.67,1.55,6.29,4.1,4.58,7.91s-8.7,7.86-18.64,3c-2.88-1.39-5-3.4-10.08-5.25-1.18-.42-3-.51-3,.84a135,135,0,0,1-.19,22.66A8.75,8.75,0,0,1,53.2,90ZM15.64,19.28H59a2.61,2.61,0,0,0,2.61-2.62h0v-14A2.61,2.61,0,0,0,59,0H15.64A2.62,2.62,0,0,0,13,2.62h0v14a2.62,2.62,0,0,0,2.62,2.62Z"/><path class="cls-2" d="M42.08,90C29.44,89.54,4.8,84.7,2.14,74.64-.73,63.82-1,56,3.08,37.27A82,82,0,0,0,4,25.55a1.3,1.3,0,0,1,1.31-1.27H45.09a1.25,1.25,0,0,1,1,.5c1.81,2.55,6.57,4.07,9,6.82,4.61,5.16,6,9.1,8.6,12.56,4.49,6,10.19,7,14.66,8.92,3.67,1.55,6.29,4.1,4.59,7.91s-8.71,7.86-18.65,3c-2.88-1.39-5-3.4-10.08-5.25-1.18-.42-3-.51-3,.84a135,135,0,0,1-.19,22.66A8.75,8.75,0,0,1,42.08,90ZM4.52,19.28H47.86a2.61,2.61,0,0,0,2.61-2.62h0v-14A2.61,2.61,0,0,0,47.86,0H4.52A2.62,2.62,0,0,0,1.9,2.62h0v14a2.62,2.62,0,0,0,2.62,2.62Z"/></g></g></svg>