<svg xmlns="http://www.w3.org/2000/svg" viewBox="0 0 102.14 83.52"><defs><style>.cls-1,.cls-2{fill:#63b770;}.cls-1{opacity:0.6;}</style></defs><title>UserVoteGrün</title><g id="Ebene_2" data-name="Ebene 2"><g id="Ebene_1-2" data-name="Ebene 1"><path class="cls-1" d="M102.13,41.44c-.45,12.64-5.29,37.28-15.35,39.94C76,84.24,68.14,84.51,49.41,80.44a82.09,82.09,0,0,0-11.72-1,1.32,1.32,0,0,1-1.28-1.31V38.42a1.28,1.28,0,0,1,.51-1c2.54-1.82,4.07-6.57,6.82-9,5.16-4.61,9.1-6,12.56-8.6,6-4.5,7-10.19,8.92-14.67,1.55-3.66,4.1-6.28,7.91-4.58s7.86,8.7,3,18.64c-1.4,2.89-3.4,5-5.25,10.08-.42,1.19-.52,3.06.83,3a135.13,135.13,0,0,1,22.67.2A8.74,8.74,0,0,1,102.13,41.44ZM31.41,79V35.66A2.61,2.61,0,0,0,28.8,33h-14a2.61,2.61,0,0,0-2.61,2.62h0V79a2.61,2.61,0,0,0,2.61,2.62H28.8A2.61,2.61,0,0,0,31.41,79Z"/><path class="cls-2" d="M90,41.44c-.45,12.64-5.29,37.28-15.35,39.94C63.82,84.24,56,84.51,37.27,80.44a82,82,0,0,0-11.72-1,1.3,1.3,0,0,1-1.27-1.31V38.42a1.24,1.24,0,0,1,.5-1c2.55-1.82,4.07-6.57,6.82-9,5.16-4.61,9.1-6,12.56-8.6,6-4.5,7-10.19,8.92-14.67C54.63,1.45,57.18-1.17,61,.53s7.86,8.7,3,18.64c-1.39,2.89-3.4,5-5.25,10.08-.42,1.19-.51,3.06.84,3a135,135,0,0,1,22.66.2A8.74,8.74,0,0,1,90,41.44ZM19.28,79V35.66A2.62,2.62,0,0,0,16.66,33h-14A2.62,2.62,0,0,0,0,35.66H0V79a2.62,2.62,0,0,0,2.62,2.62h14A2.62,2.62,0,0,0,19.28,79Z"/></g></g></svg>