<svg xmlns="http://www.w3.org/2000/svg" viewBox="0 0 103.59 83.52"><defs><style>.cls-1,.cls-2{fill:#df4848;}.cls-1{opacity:0.61;}</style></defs><title>userVoteRot</title><g id="Ebene_2" data-name="Ebene 2"><g id="Ebene_1-2" data-name="Ebene 1"><path class="cls-1" d="M13.59,42.08C14,29.44,18.89,4.8,29,2.14,39.76-.73,47.59-1,66.31,3.08A82.21,82.21,0,0,0,78,4a1.32,1.32,0,0,1,1.28,1.31V45.09a1.23,1.23,0,0,1-.51,1c-2.54,1.81-4.07,6.57-6.81,9-5.16,4.61-9.1,6-12.56,8.6-6,4.49-7,10.19-8.93,14.66C49,82.07,46.4,84.69,42.59,83s-7.86-8.71-3-18.65c1.4-2.88,3.41-5,5.25-10.08.43-1.18.52-3-.83-3A135.13,135.13,0,0,1,21.3,51.1,8.76,8.76,0,0,1,13.59,42.08ZM84.31,4.52V47.86a2.61,2.61,0,0,0,2.61,2.61h14a2.61,2.61,0,0,0,2.62-2.61h0V4.52A2.62,2.62,0,0,0,101,1.9h-14a2.61,2.61,0,0,0-2.61,2.62Z"/><path class="cls-2" d="M0,42.08C.46,29.44,5.3,4.8,15.36,2.14,26.18-.73,34-1,52.73,3.08A82.09,82.09,0,0,0,64.45,4a1.3,1.3,0,0,1,1.27,1.31V45.09a1.25,1.25,0,0,1-.5,1c-2.55,1.81-4.07,6.57-6.82,9-5.16,4.61-9.1,6-12.56,8.6-6,4.49-7,10.19-8.92,14.66C35.37,82.07,32.82,84.69,29,83s-7.86-8.71-3-18.65c1.4-2.88,3.4-5,5.25-10.08.42-1.18.51-3-.83-3A135.12,135.12,0,0,1,7.72,51.1,8.75,8.75,0,0,1,0,42.08ZM70.72,4.52V47.86a2.61,2.61,0,0,0,2.62,2.61h14A2.61,2.61,0,0,0,90,47.86h0V4.52A2.61,2.61,0,0,0,87.39,1.9h-14a2.62,2.62,0,0,0-2.62,2.62Z"/></g></g></svg>