<svg xmlns="http://www.w3.org/2000/svg" viewBox="0 0 161.17 90.73"><defs><style>.cls-1,.cls-2{fill:#63b770;fill-rule:evenodd;}.cls-1{opacity:0.6;}</style></defs><title>VerkehrGrün</title><g id="Ebene_2" data-name="Ebene 2"><g id="Ebene_1-2" data-name="Ebene 1"><path class="cls-1" d="M50.66,46.37l1.56-3.56H48.54a3.8,3.8,0,0,1-3.4-5.54,9.19,9.19,0,0,1,4.41-3.82h6.69L67.83,7.37c4-4.91,7.57-7.58,10.7-7.36q24.41.35,48.81,0c3.12-.22,6.91,2.45,10.7,7.36l11.58,26.08h6.69a9.19,9.19,0,0,1,4.41,3.82,3.79,3.79,0,0,1-3.4,5.54h-3.46l1.56,3.56v39a4.69,4.69,0,0,1-4.68,4.68H134.25a4.93,4.93,0,0,1-4.91-4.91V74.23H76.52V85.38a4.71,4.71,0,0,1-4.68,4.68H55.35a4.92,4.92,0,0,1-4.91-4.9C50.44,72.08,50.66,59.23,50.66,46.37Zm29-38.11c-1.56.22-3.12,1.56-4.68,3.57-3.12,6.68-6.46,13.37-9.59,20.06h75.12c-3.12-6.69-6.24-13.38-9.59-20.06-1.56-2-3.12-3.35-4.68-3.57Zm60.18,39a7.81,7.81,0,1,0,7.8,7.81A7.9,7.9,0,0,0,139.82,47.26ZM66,47.26a7.81,7.81,0,1,1-7.8,7.81A7.9,7.9,0,0,1,66,47.26Z"/><path class="cls-2" d="M6,47l1.56-3.56H3.85a3.8,3.8,0,0,1-3.4-5.54,9.19,9.19,0,0,1,4.41-3.82h6.69L23.14,8c4-4.9,7.58-7.58,10.7-7.35q24.4.33,48.81,0C85.77.46,89.56,3.14,93.35,8l11.59,26.08h6.68A9.19,9.19,0,0,1,116,37.94a3.79,3.79,0,0,1-3.39,5.54h-3.47L110.73,47v39a4.68,4.68,0,0,1-4.68,4.68H89.56a4.92,4.92,0,0,1-4.91-4.9V74.91H31.83V86.05a4.71,4.71,0,0,1-4.68,4.68H10.66a4.93,4.93,0,0,1-4.91-4.9C5.76,72.76,6,59.9,6,47ZM35,8.93c-1.56.22-3.12,1.56-4.68,3.57-3.12,6.68-6.46,13.37-9.58,20.06H95.8c-3.12-6.69-6.24-13.38-9.59-20.06-1.56-2-3.12-3.35-4.68-3.57Zm60.18,39a7.8,7.8,0,1,0,7.8,7.8A7.9,7.9,0,0,0,95.13,47.94Zm-73.77,0a7.8,7.8,0,1,1-7.81,7.8A7.9,7.9,0,0,1,21.36,47.94Z"/></g></g></svg>