<svg xmlns="http://www.w3.org/2000/svg" viewBox="0 0 93.54 133.63"><defs><style>.cls-1{fill:#63b770;}.cls-2{opacity:0.59;}</style></defs><title>VolumeGrün</title><g id="Ebene_2" data-name="Ebene 2"><g id="Ebene_1-2" data-name="Ebene 1"><path class="cls-1" d="M78.49,21.55V128c0,5.52-3.35,6.33-5.17,5.12l-38.7-22.85c-2.68-1.5-4.53-2.29-4.53-5.13V44.41c0-2.84,2-3.83,4.3-5.13L73.53,16.42C76.25,14.65,78.49,15.29,78.49,21.55Z"/><path class="cls-1" d="M22.24,46.56V103c0,2.61-.9,6.48-3.51,6.48H3.22C.61,109.47,0,105.6,0,103V46.56c0-2.64.61-6.42,3.22-6.42H18.73C21.34,40.14,22.24,43.92,22.24,46.56Z"/><g class="cls-2"><path class="cls-1" d="M93.54,6V112.46c0,5.51-3.35,6.32-5.17,5.12L49.66,94.72c-2.68-1.5-4.53-2.29-4.53-5.13V28.84c0-2.84,2-3.83,4.3-5.12L88.57.86C91.3-.92,93.54-.27,93.54,6Z"/><path class="cls-1" d="M37.28,31V87.42c0,2.61-.89,6.49-3.5,6.49H18.26C15.65,93.91,15,90,15,87.42V31c0-2.63.61-6.42,3.22-6.42H33.78C36.39,24.57,37.28,28.36,37.28,31Z"/></g></g></g></svg>