<svg xmlns="http://www.w3.org/2000/svg" viewBox="0 0 89.61 133.07"><defs><style>.cls-1{fill:#df4848;}.cls-2{opacity:0.6;}</style></defs><title>VolumeRot</title><g id="Ebene_2" data-name="Ebene 2"><g id="Ebene_1-2" data-name="Ebene 1"><path class="cls-1" d="M78.49,21V127.46c0,5.52-3.35,6.32-5.17,5.12l-38.7-22.86c-2.68-1.49-4.53-2.28-4.53-5.12V43.85c0-2.84,2-3.83,4.3-5.13L73.53,15.86C76.25,14.09,78.49,14.73,78.49,21Z"/><path class="cls-1" d="M22.24,46v56.43c0,2.61-.9,6.48-3.51,6.48H3.22C.61,108.91,0,105,0,102.43V46c0-2.64.61-6.43,3.22-6.43H18.73C21.34,39.57,22.24,43.36,22.24,46Z"/><g class="cls-2"><path class="cls-1" d="M89.61,6V112.46c0,5.51-3.35,6.32-5.17,5.12L45.74,94.72c-2.68-1.5-4.53-2.29-4.53-5.13V28.84c0-2.84,2-3.83,4.3-5.12L84.65.86C87.37-.92,89.61-.27,89.61,6Z"/><path class="cls-1" d="M33.36,31V87.42c0,2.61-.9,6.49-3.51,6.49H14.34c-2.61,0-3.22-3.88-3.22-6.49V31c0-2.63.61-6.42,3.22-6.42H29.85C32.46,24.57,33.36,28.36,33.36,31Z"/></g></g></g></svg>