<svg xmlns="http://www.w3.org/2000/svg" xmlns:xlink="http://www.w3.org/1999/xlink" viewBox="0 0 183.34 174.18"><defs><style>.cls-1{fill:#fff;}.cls-2{clip-path:url(#clip-path);}.cls-3,.cls-4{fill:#0b0d13;}.cls-4{opacity:0.57;}</style><clipPath id="clip-path"><circle class="cls-1" cx="91.67" cy="87.09" r="87.09"/></clipPath></defs><title>VoteButton</title><g id="Ebene_2" data-name="Ebene 2"><g id="Ebene_1-2" data-name="Ebene 1"><circle class="cls-1" cx="91.67" cy="87.09" r="87.09"/><g class="cls-2"><path class="cls-3" d="M90.17,116.8c.47-13.08,5.48-38.59,15.9-41.35,11.2-3,19.3-3.24,38.68,1a85.06,85.06,0,0,0,12.14,1,1.36,1.36,0,0,1,1.32,1.36v41.15a1.28,1.28,0,0,1-.53,1.06c-2.63,1.88-4.21,6.8-7.05,9.34-5.35,4.77-9.43,6.2-13,8.9-6.17,4.65-7.29,10.55-9.25,15.18-1.6,3.8-4.24,6.51-8.18,4.75s-8.14-9-3.15-19.3c1.45-3,3.52-5.16,5.43-10.44.45-1.22.54-3.16-.86-3.07a139.37,139.37,0,0,1-23.47-.21A9.06,9.06,0,0,1,90.17,116.8Zm73.22-38.88v44.87a2.7,2.7,0,0,0,2.7,2.71h14.54a2.71,2.71,0,0,0,2.71-2.71h0V77.92a2.71,2.71,0,0,0-2.71-2.71H166.09a2.7,2.7,0,0,0-2.7,2.71Z"/><path class="cls-4" d="M93.17,57.38C92.7,70.46,87.69,96,77.28,98.73c-11.2,3-19.31,3.24-38.69-1a85,85,0,0,0-12.13-1,1.36,1.36,0,0,1-1.33-1.36V54.25a1.32,1.32,0,0,1,.53-1.06c2.63-1.88,4.21-6.79,7.06-9.34,5.34-4.77,9.42-6.19,13-8.9C51.88,30.3,53,24.4,55,19.77c1.6-3.8,4.24-6.51,8.18-4.74s8.14,9,3.16,19.3c-1.45,3-3.53,5.15-5.44,10.43-.44,1.22-.54,3.16.86,3.08a139.36,139.36,0,0,1,23.47.2A9.06,9.06,0,0,1,93.17,57.38ZM20,96.27V51.39a2.72,2.72,0,0,0-2.71-2.71H2.71A2.71,2.71,0,0,0,0,51.39H0V96.27A2.7,2.7,0,0,0,2.71,99H17.25A2.71,2.71,0,0,0,20,96.27Z"/></g></g></g></svg>