<svg xmlns="http://www.w3.org/2000/svg" viewBox="0 0 285.45 254.3"><defs><style>.cls-1{fill:#fff;}</style></defs><title>WertungHellRot</title><g id="Ebene_2" data-name="Ebene 2"><g id="Ebene_1-2" data-name="Ebene 1"><path class="cls-1" d="M282.37,219.7l-59.9-104.1-59.9-104a22.92,22.92,0,0,0-39.8-.1L3.07,219.5a23.28,23.28,0,0,0,0,23.1A22.87,22.87,0,0,0,23,254.3h239.5a23.1,23.1,0,0,0,19.9-34.6ZM130.67,78.5a11.5,11.5,0,0,1,23,0v79a11.5,11.5,0,0,1-23,0Zm12,138a15,15,0,1,1,15-15A15,15,0,0,1,142.67,216.5Z"/></g></g></svg>